# xmcd
#
# Track frame offsets:
#	150
#	15279
#	26173
#	50284
#	63459
#	77170
#	86811
#	104043
#	120450
#	135934
#	146789
#
# Disc length: 2115 seconds
#
# Revision: 0
# Processed by: cddbd v1.5.2PL0 Copyright (c) Steve Scherf et al.
# Submitted via: EasyCDDAExtractor 16.0.6.1
#
DISCID=9008410b
DTITLE=Αρλέτα - Romancero gitano-Μ.Θεοδωράκης, F.C.Lorca
DYEAR=1978
DGENRE=Έντεχνη λαϊκή
TTITLE0=Του ανέμου και της Παινεμένης [Rom. gitano]
TTITLE1=Η καλόγρια η τσιγγάνα [Rom. gitano]
TTITLE2=Η Παντέρμη [Rom. gitano]
TTITLE3=Ο Αντόνιο Τόρες Χερέντια στο δρόμο της Σεβίλιας[Rom. gitano]
TTITLE4=Ο θάνατος του Αντόνιο Τόρες Χερέντια [Rom. gitano]
TTITLE5=Του πικραμένου [Rom. gitano]
TTITLE6=Χαμός από αγάπη [Rom. gitano]
TTITLE7=Μαργαρίτα μαγιοπούλα [Ι. Καμπανέλλης, ''Μαγική πόλη'']
TTITLE8=Όμορφ πόλη [Γ. Θεοδωράκης, ''Λιποτάκτες'']
TTITLE9=Αφροδίτη (νανούρισμα)[Μιχ. Κακογιάννης, ''Ιφιγένεια'']
TTITLE10=Αγάπη μου [Γ. Θεοδωράκης, ''Φαίδρα'']
EXTD=
EXTT0=
EXTT1=
EXTT2=
EXTT3=
EXTT4=
EXTT5=
EXTT6=
EXTT7=
EXTT8=
EXTT9=
EXTT10=
PLAYORDER=
